{
	"asset":{
		"version":"2.0",
		"generator":"Created using the official Cinema 4D glTF Exporter 1.000x284978"
	},
	"scenes":[{
		"nodes":[0]
	}],
	"nodes":[{
		"name":"iphone-12-pro-max-6-7.stp",
		"translation":[0.0,
		0.0,
		0.0],
		"rotation":[0.0,
		0.0,
		0.0,
		-1.0],
		"scale":[1.0,
		1.0,
		1.0],
		"children":[1]
	},
	{
		"name":"IPHONE-12-PRO-MAX-6-7_body1",
		"translation":[0.0,
		0.0,
		0.0],
		"rotation":[0.0,
		0.0,
		0.0,
		-1.0],
		"scale":[1.0,
		1.0,
		1.0],
		"mesh":0
	}],
	"meshes":[{
		"name":"IPHONE-12-PRO-MAX-6-7_body1",
		"primitives":[{
			"attributes":{
				"POSITION":1,
				"NORMAL":2,
				"TEXCOORD_0":3
			},
			"indices":0,
			"material":0
		}]
	}],
	"accessors":[{
		"bufferView":0,
		"type":"SCALAR",
		"componentType":5123,
		"count":13500,
		"byteOffset":0,
		"min":[0],
		"max":[4585]
	},
	{
		"bufferView":1,
		"type":"VEC3",
		"componentType":5126,
		"count":4586,
		"byteOffset":0,
		"min":[-4.085000514984131,
		-8.170171737670899,
		-0.6974999904632568],
		"max":[4.085224628448486,
		8.170001983642579,
		0.4599999785423279]
	},
	{
		"bufferView":1,
		"type":"VEC3",
		"componentType":5126,
		"count":4586,
		"byteOffset":12,
		"min":[-1.0,
		-1.0,
		-1.0],
		"max":[1.0,
		1.0,
		1.0]
	},
	{
		"bufferView":1,
		"type":"VEC2",
		"componentType":5126,
		"count":4586,
		"byteOffset":24,
		"min":[-3.795958605223859e-7,
		-0.0000011456647825980327],
		"max":[1.0000004768371583,
		1.0000014305114747]
	}],
	"bufferViews":[{
		"buffer":0,
		"byteOffset":0,
		"byteLength":27000,
		"target":34963
	},
	{
		"buffer":0,
		"byteOffset":27000,
		"byteLength":146752,
		"target":34962,
		"byteStride":32
	}],
	"buffers":[{
		"uri":"data:application/octet-stream;base64,",
		"byteLength":173752
	}],
	"materials":[{
		"pbrMetallicRoughness":{
			"baseColorFactor":[0.9,
			0.9,
			0.9,
			0.15000000000000003],
			"metallicFactor":0.0,
			"roughnessFactor":0.5
		},
		"emissiveFactor":[0.0,
		0.0,
		0.0],
		"alphaMode":"BLEND",
		"doubleSided":true,
		"name":""
	}]
}