{
	"asset":{
		"version":"2.0",
		"generator":"Created using the official Cinema 4D glTF Exporter 1.000x284978"
	},
	"scenes":[{
		"nodes":[0]
	}],
	"nodes":[{
		"name":"细分曲面",
		"translation":[0.0,
		-0.20350442826747895,
		-0.06671547144651413],
		"rotation":[0.0,
		0.0,
		0.0,
		-1.0],
		"scale":[1.0,
		1.0,
		1.0],
		"mesh":0
	}],
	"meshes":[{
		"name":"细分曲面",
		"primitives":[{
			"attributes":{
				"POSITION":1,
				"NORMAL":2,
				"TEXCOORD_0":3
			},
			"indices":0,
			"material":0
		}]
	}],
	"accessors":[{
		"bufferView":0,
		"type":"SCALAR",
		"componentType":5123,
		"count":44640,
		"byteOffset":0,
		"min":[0],
		"max":[8190]
	},
	{
		"bufferView":1,
		"type":"VEC3",
		"componentType":5126,
		"count":8191,
		"byteOffset":0,
		"min":[-4.120846748352051,
		-4.795557975769043,
		-8.128323554992676],
		"max":[4.120846748352051,
		4.795557975769043,
		4.187317848205566]
	},
	{
		"bufferView":1,
		"type":"VEC3",
		"componentType":5126,
		"count":8191,
		"byteOffset":12,
		"min":[-1.0,
		-1.0,
		-1.0],
		"max":[1.0,
		1.0,
		1.0]
	},
	{
		"bufferView":1,
		"type":"VEC2",
		"componentType":5126,
		"count":8191,
		"byteOffset":24,
		"min":[0.1344071626663208,
		0.0],
		"max":[0.9431922435760498,
		1.0]
	}],
	"bufferViews":[{
		"buffer":0,
		"byteOffset":0,
		"byteLength":89280,
		"target":34963
	},
	{
		"buffer":0,
		"byteOffset":89280,
		"byteLength":262112,
		"target":34962,
		"byteStride":32
	}],
	"buffers":[{
		"uri":"data:application/octet-stream;base64,",
		"byteLength":351392
	}],
	"materials":[{
		"pbrMetallicRoughness":{
			"baseColorFactor":[0.9602999999999998,
			0.9682216666666665,
			0.97,
			1.0],
			"metallicFactor":0.1,
			"roughnessFactor":0.0
		},
		"emissiveFactor":[0.0,
		0.0,
		0.0],
		"alphaMode":"OPAQUE",
		"doubleSided":true,
		"name":"材质"
	}]
}