{
	"asset":{
		"version":"2.0",
		"generator":"Created using the official Cinema 4D glTF Exporter 1.000x284978"
	},
	"bufferViews":[{
		"buffer":0,
		"byteLength":33240,
		"byteOffset":0,
		"target":34963
	},
	{
		"buffer":0,
		"byteLength":99584,
		"byteOffset":33240,
		"target":34962,
		"byteStride":32
	},
	{
		"buffer":1,
		"byteLength":89280,
		"byteOffset":0,
		"target":34963
	},
	{
		"buffer":1,
		"byteLength":262112,
		"byteOffset":89280,
		"target":34962,
		"byteStride":32
	}],
	"scenes":[{
		"nodes":[0,
		1]
	}],
	"nodes":[{
		"name":"tie",
		"translation":[8.326672684688674e-17,
		-1.6737078428268433,
		0.4892590641975403],
		"rotation":[0.0,
		0.0,
		0.0,
		-1.0],
		"scale":[1.0,
		1.0,
		1.0],
		"mesh":0
	},
	{
		"name":"mark",
		"translation":[1.6653345369377349e-16,
		0.7159223556518555,
		-0.8056539297103882],
		"rotation":[0.0,
		0.0,
		0.0,
		-1.0],
		"scale":[1.0,
		1.0,
		1.0],
		"mesh":1
	}],
	"meshes":[{
		"name":"tie",
		"primitives":[{
			"attributes":{
				"NORMAL":2,
				"POSITION":1,
				"TEXCOORD_0":3
			},
			"indices":0,
			"material":0
		}]
	},
	{
		"name":"mark",
		"primitives":[{
			"attributes":{
				"NORMAL":6,
				"POSITION":5,
				"TEXCOORD_0":7
			},
			"indices":4,
			"material":0
		}]
	}],
	"accessors":[{
		"bufferView":0,
		"type":"SCALAR",
		"min":[0],
		"componentType":5123,
		"count":16620,
		"byteOffset":0,
		"max":[3111]
	},
	{
		"bufferView":1,
		"type":"VEC3",
		"min":[-4.121846675872803,
		-2.150151491165161,
		-4.224754810333252],
		"componentType":5126,
		"count":3112,
		"byteOffset":0,
		"max":[4.121846675872803,
		6.963881969451904,
		3.6323435306549074]
	},
	{
		"bufferView":1,
		"type":"VEC3",
		"min":[-1.0,
		-1.0,
		-1.0],
		"componentType":5126,
		"count":3112,
		"byteOffset":12,
		"max":[1.0,
		1.0,
		1.0]
	},
	{
		"bufferView":1,
		"type":"VEC2",
		"min":[0.02463514730334282,
		0.02463514730334282],
		"componentType":5126,
		"count":3112,
		"byteOffset":24,
		"max":[0.9753648042678833,
		0.8569810390472412]
	},
	{
		"bufferView":2,
		"type":"SCALAR",
		"min":[0],
		"componentType":5123,
		"count":44640,
		"byteOffset":0,
		"max":[8190]
	},
	{
		"bufferView":3,
		"type":"VEC3",
		"min":[-4.120846748352051,
		-4.795557975769043,
		-7.389384746551514],
		"componentType":5126,
		"count":8191,
		"byteOffset":0,
		"max":[4.120846748352051,
		4.795557975769043,
		4.9262566566467289]
	},
	{
		"bufferView":3,
		"type":"VEC3",
		"min":[-1.0,
		-1.0,
		-1.0],
		"componentType":5126,
		"count":8191,
		"byteOffset":12,
		"max":[1.0,
		1.0,
		1.0]
	},
	{
		"bufferView":3,
		"type":"VEC2",
		"min":[0.1344071626663208,
		0.0],
		"componentType":5126,
		"count":8191,
		"byteOffset":24,
		"max":[0.9431922435760498,
		1.0]
	}],
	"buffers":[{
		"uri":"data:application/octet-stream;base64,",
		"byteLength":132824
	},
	{
		"uri":"data:application/octet-stream;base64,",
		"byteLength":351392
	}],
	"materials":[{
		"pbrMetallicRoughness":{
			"baseColorFactor":[0.9114,
			0.92721,
			0.93,
			1.0],
			"metallicFactor":0.3,
			"roughnessFactor":0.0
		},
		"emissiveFactor":[0.0,
		0.0,
		0.0],
		"alphaMode":"OPAQUE",
		"doubleSided":true,
		"name":""
	}]
}