{
	"asset":{
		"version":"2.0",
		"generator":"Created using the official Cinema 4D glTF Exporter 1.000x284978"
	},
	"bufferViews":[{
		"buffer":0,
		"byteLength":92160,
		"byteOffset":0,
		"target":34963
	},
	{
		"buffer":0,
		"byteLength":279424,
		"byteOffset":92160,
		"target":34962,
		"byteStride":32
	}],
	"scenes":[{
		"nodes":[0]
	}],
	"nodes":[{
		"name":"平面.1",
		"translation":[0.0,
		-2.5770440101623537,
		-0.033357735723257068],
		"rotation":[0.0,
		0.0,
		0.0,
		-1.0],
		"scale":[1.0,
		1.0,
		1.0],
		"mesh":0
	}],
	"meshes":[{
		"name":"平面.1",
		"primitives":[{
			"attributes":{
				"POSITION":1,
				"NORMAL":2,
				"TEXCOORD_0":3
			},
			"indices":0,
			"material":0
		}]
	}],
	"accessors":[{
		"bufferView":0,
		"type":"SCALAR",
		"min":[0],
		"componentType":5123,
		"count":46080,
		"byteOffset":0,
		"max":[8731]
	},
	{
		"bufferView":1,
		"type":"VEC3",
		"min":[-4.120846748352051,
		-2.422018051147461,
		-8.161681175231934],
		"componentType":5126,
		"count":8732,
		"byteOffset":0,
		"max":[4.120846748352051,
		7.169097423553467,
		4.153960227966309]
	},
	{
		"bufferView":1,
		"type":"VEC3",
		"min":[-1.0,
		-1.0,
		-1.0],
		"componentType":5126,
		"count":8732,
		"byteOffset":12,
		"max":[1.0,
		1.0,
		1.0]
	},
	{
		"bufferView":1,
		"type":"VEC2",
		"min":[0.018601741641759874,
		0.021313592791557313],
		"componentType":5126,
		"count":8732,
		"byteOffset":24,
		"max":[0.9813982248306274,
		0.98130202293396]
	}],
	"buffers":[{
		"uri":"data:application/octet-stream;base64,",
		"byteLength":371584
	}],
	"materials":[{
		"pbrMetallicRoughness":{
			"baseColorFactor":[0.9212,
			0.9371799999999998,
			0.9400000000000001,
			1.0],
			"metallicFactor":0.09,
			"roughnessFactor":0.0
		},
		"emissiveFactor":[0.0,
		0.0,
		0.0],
		"alphaMode":"OPAQUE",
		"doubleSided":true,
		"name":"材质"
	}]
}